<?xml version="1.0" encoding="utf-8"?>
<!-- Generator: Adobe Illustrator 14.0.0, SVG Export Plug-In . SVG Version: 6.00 Build 43363)  -->
<!DOCTYPE svg PUBLIC "-//W3C//DTD SVG 1.1//EN" "http://www.w3.org/Graphics/SVG/1.1/DTD/svg11.dtd">
<svg version="1.1" id="Ebene_1" xmlns="http://www.w3.org/2000/svg" xmlns:xlink="http://www.w3.org/1999/xlink" x="0px" y="0px"
	 width="210px" height="100px" viewBox="0 0 210 100" enable-background="new 0 0 210 100" xml:space="preserve">
<path fill="#D40032" d="M72.99,50.54c-6.207,0-11.069,4.812-11.069,10.952c0,6.124,4.829,10.922,10.995,10.922
	c2.247,0,4.424-0.793,6.146-2.204v1.721h4.96V61.492C84.021,55.352,79.176,50.54,72.99,50.54z M72.99,67.742
	c-3.355,0-5.984-2.744-5.984-6.25c0-3.483,2.685-6.315,5.984-6.315c1.564,0,3.053,0.65,4.192,1.832
	c1.158,1.203,1.796,2.795,1.796,4.483C78.978,64.938,76.292,67.742,72.99,67.742z"/>
<path fill="#D40032" d="M149.904,64.24l-0.16,0.275l-0.093,0.156c-1.17,2.015-2.948,2.991-5.434,2.991
	c-1.721,0-3.302-0.643-4.439-1.787l14.706-5.873l0.441-0.177l-0.112-0.463l-0.062-0.263c-1.193-5.042-5.607-8.562-10.729-8.562
	c-6.107,0-11.076,4.914-11.076,10.953c0,6.104,4.952,10.883,11.271,10.883c5.017,0,8.732-2.471,10.461-6.956l0.167-0.43l0.285-0.749
	H149.904z M138.033,61.46c0-3.834,3.11-6.208,5.989-6.208c1.671,0,3.282,0.783,4.428,2.128l-2.282,0.909
	c-2.723,1.083-6.549,2.607-8.131,3.237C138.033,61.504,138.033,61.481,138.033,61.46z"/>
<path fill="#D40032" d="M127.824,53.645c-2.048-2.003-4.812-3.104-7.78-3.104c-2.217,0-4.396,0.753-6.143,2.097V42.5h-4.965v18.917
	c0,2.985,1.136,5.755,3.2,7.798c2.062,2.038,4.853,3.159,7.865,3.159c6.188,0,11.033-4.813,11.033-10.957
	C131.035,58.429,129.895,55.669,127.824,53.645z M120.002,67.742c-1.562,0-3.052-0.651-4.189-1.835
	c-1.159-1.204-1.799-2.798-1.799-4.489c0-3.44,2.688-6.241,5.988-6.241c3.282,0,5.951,2.801,5.951,6.241
	C125.953,64.964,123.339,67.742,120.002,67.742z"/>
<path fill="#D40032" d="M177.717,71.957c-2.093,0-3.906-0.659-5.241-1.903c-1.518-1.416-2.32-3.487-2.32-5.987V43.051V42.5h0.55
	h3.946h0.552v0.551V63.95c0,1.13,0.285,1.982,0.85,2.53c0.637,0.614,1.525,0.744,2.157,0.744c0.053,0,0.104-0.001,0.153-0.002
	l0.325-0.012l0.569-0.021v0.571v3.6v0.515l-0.511,0.035l-0.296,0.02C178.205,71.948,177.958,71.957,177.717,71.957L177.717,71.957z"
	/>
<path fill="#D40032" d="M208.723,71.931h-0.552h-3.941h-0.55v-0.55V59.299c0-2.482-1.67-4.084-4.253-4.084
	c-2.61,0-4.296,1.602-4.296,4.084v12.082v0.55h-0.55h-3.941h-0.552v-0.55V59.412c0-5.225,3.841-8.872,9.339-8.872
	c5.474,0,9.296,3.647,9.296,8.872v11.969V71.931L208.723,71.931z"/>
<polygon fill="#D40032" points="186.656,71.931 186.106,71.931 182.128,71.931 181.575,71.931 181.575,71.381 181.575,51.574 
	181.575,51.024 182.128,51.024 186.106,51.024 186.656,51.024 186.656,51.574 186.656,71.381 186.656,71.931 "/>
<path fill="#D40032" d="M162.078,71.931h-0.551h-3.939h-0.548v-0.55v-11.71c0-2.794,0.956-5.146,2.771-6.803
	c1.623-1.48,3.759-2.265,6.177-2.265c0.335,0,0.678,0.016,1.02,0.047l0.289,0.026l0.5,0.045v0.502v3.566v0.58l-0.579-0.029
	l-0.33-0.016c-0.133-0.006-0.263-0.011-0.393-0.011c-1.378,0-2.503,0.378-3.254,1.095c-0.761,0.723-1.162,1.824-1.162,3.188v11.784
	V71.931L162.078,71.931z"/>
<path fill="#D40032" d="M100.863,71.931h-0.551h-3.938h-0.551v-0.55v-11.71c0-2.794,0.959-5.146,2.772-6.801
	c1.624-1.482,3.76-2.267,6.181-2.267c0.334,0,0.678,0.016,1.018,0.047l0.288,0.026l0.503,0.045v0.502v3.566v0.58l-0.58-0.029
	l-0.33-0.016c-0.132-0.006-0.262-0.011-0.392-0.011c-1.381,0-2.505,0.378-3.258,1.095c-0.76,0.723-1.161,1.824-1.161,3.188v11.784
	V71.931L100.863,71.931z"/>
<polygon fill="#D40032" points="92.387,71.931 91.835,71.931 87.857,71.931 87.307,71.931 87.307,71.381 87.307,51.575 
	87.307,51.024 87.857,51.024 91.835,51.024 92.387,51.024 92.387,51.575 92.387,71.381 92.387,71.931 "/>
<path fill="#D40032" d="M184.146,49.373c-1.57,0-2.847-1.277-2.847-2.848c0-1.569,1.276-2.846,2.847-2.846s2.849,1.277,2.849,2.846
	C186.994,48.096,185.716,49.373,184.146,49.373L184.146,49.373z"/>
<path fill="#D40032" d="M89.868,49.373c-1.57,0-2.848-1.277-2.848-2.848c0-1.569,1.278-2.846,2.848-2.846
	c1.571,0,2.849,1.277,2.849,2.846C92.717,48.096,91.439,49.373,89.868,49.373L89.868,49.373z"/>
<path fill="#D40032" d="M40.342,54.689c-2.49-6.794-4.713-11.492-6.355-13.872c-1.637-2.38-2.708-3.432-3.823-4.308
	c-0.947-0.744-2.929-2.059-4.963-2.059v-0.15h8.755c2.354,0.005,5.295,0.872,7.622,2.999c0.71,0.646,1.371,1.394,1.988,2.208
	c0.558,0.743,1.087,1.541,1.58,2.384c2.387,4.046,4.13,8.947,5.998,13.844c0.118,0.3,0.619,1.673,0.708,1.904
	c0.328,0.823,0.685,1.652,1.056,2.477l8.581-34.618c2.73-11.033-6.29-20.008-20.152-20.042C27.468,5.417,14.01,14.33,11.279,25.359
	L2.036,62.641c-2.733,11.038,6.292,20.007,20.157,20.042c9.641,0.03,19.083-4.271,24.86-10.597
	c-1.699-0.009-4.058-0.153-6.816-0.684c-5.757-1.094-9.855-7.03-13.41-16.713c-2.491-6.794-4.661-11.492-6.299-13.872
	c-1.639-2.38-2.752-3.38-3.866-4.258c-1.116-0.875-3.223-2.104-5.043-2.109v-0.15h8.826c2.353,0.005,5.343,0.872,7.67,2.999
	c0.715,0.646,1.374,1.394,1.991,2.208c0.555,0.743,1.085,1.541,1.583,2.384c2.376,4.046,4.124,8.947,5.992,13.844
	c0.124,0.3,0.619,1.673,0.717,1.904c2.213,5.611,5.613,11.381,9.458,13.525c0.496-0.594,0.955-1.201,1.379-1.825
	C45.719,66.653,42.886,61.637,40.342,54.689"/>
<path fill="#FFFFFF" d="M38.387,57.637c-0.09-0.229-0.59-1.602-0.709-1.902c-1.869-4.895-3.615-9.796-5.999-13.843
	c-0.493-0.848-1.025-1.641-1.58-2.384c-0.617-0.814-1.275-1.562-1.991-2.208c-2.325-2.125-5.318-2.993-7.672-3.001h-8.825
	c0,0,0,0.126,0,0.152c1.822,0.005,3.93,1.232,5.044,2.11c1.114,0.876,2.225,1.877,3.865,4.258c1.64,2.38,3.811,7.077,6.303,13.875
	c3.549,9.684,7.649,15.619,13.406,16.714c2.764,0.526,5.119,0.671,6.818,0.68c0.277-0.303,0.544-0.609,0.803-0.92
	C44.002,69.021,40.605,63.254,38.387,57.637z"/>
<path fill="#FFFFFF" d="M52.906,60.116c-0.376-0.822-0.73-1.652-1.056-2.479c-0.09-0.229-0.59-1.602-0.71-1.902
	c-1.868-4.895-3.614-9.796-5.999-13.843c-0.492-0.848-1.022-1.641-1.579-2.384c-0.618-0.814-1.276-1.562-1.99-2.208
	c-2.328-2.125-5.266-2.993-7.621-3.001h-8.758c0,0,0,0.134,0,0.152c2.035,0,4.018,1.313,4.968,2.059
	c1.114,0.877,2.184,1.928,3.822,4.309c1.641,2.38,3.864,7.077,6.355,13.875c2.546,6.945,5.375,11.962,8.894,14.647
	c1.409-2.051,2.443-4.259,3.015-6.559L52.906,60.116z"/>
<path fill="#FFFFFF" d="M7.289,61.458c0,6.153,4.983,11.142,11.129,11.142c4.829,0,8.941-3.084,10.478-7.394
	c-0.259-0.412-0.519-0.834-0.776-1.259c-2.073-3.377-3.645-7.99-5.494-12.805c-1.3-0.529-2.722-0.827-4.208-0.827
	C12.272,50.315,7.289,55.304,7.289,61.458"/>
</svg>
