<svg version="1.0" xmlns="http://www.w3.org/2000/svg" width="275px" height="45px">
<g>
	<polyline fill="#DB1F26" points="16.479,8.933 32.306,8.933 16.16,44.581 0.25,44.615"/>
	<path fill="#DB1F26" d="M60.172,24.783v0.392c5.551,0.09,6.541,6.459,4.612,10.84c-4.424,10.101-17.975,8.601-24.902,8.601H20.031 L36.3,9.096l23.78-0.163c0,0,10.697-0.925,10.079,7.498C70.159,16.431,69.59,23.447,60.172,24.783 M49.116,23.152 c1.166,0,3.179,0,4.423-2.783c1.021-2.282-0.403-3.369-2.503-3.364h-3.578l-2.801,6.147H49.116z M39.199,35.17h5.979 c1.718,0,3.139,0.337,4.62-2.619c1.053-2.094,0.193-4.118-2.125-4.118h-5.393L39.199,35.17z"/>
	<polyline fill="#DB1F26" points="79.226,9.122 112.703,9.122 109.354,16.881 90.752,16.881 88.709,22.261 106.662,22.261 103.654,28.95 85.513,28.95 82.667,35.077 100.954,35.077 96.71,44.476 63.097,44.615"/>
	<path fill="#DB1F26" d="M117.907,8.992h24.385c7.991-0.373,11.886,5.092,9.207,11.46c-2.248,5.417-8.124,8.264-15.433,8.748 l6.95,15.263l-15.112,0.017l-5.213-14.307l-6.462,14.29l-14.485,0.064 M125.663,23.651h5.792c1.915,0,2.898-0.276,4.313-2.889 c1.259-2.309-0.28-3.842-2.398-3.842h-4.651L125.663,23.651z"/>
	<path fill="#DB1F26" d="M181.271,44.406l-16.987,0.043l26.848-35.591h20.732v35.548h-14.318v-8.643h-10.97 M197.545,17.321 l-7.102,11.422h7.102V17.321z"/>
	<polyline fill="#DB1F26" points="161.298,8.912 177.119,8.912 160.977,44.553 145.063,44.606"/>
	<polyline fill="#DB1F26" points="235.34,0.328 227.111,18.368 248.506,18.368 256.783,0.328"/>
	<polyline fill="#DB1F26" points="247.941,19.567 226.44,19.567 215.244,44.515 236.551,44.512"/>
	<path fill="#E9AF21" d="M265.551,18.368h-15.732l8.232-18.041h6.572c0,0,9.106-0.913,10.127,9.08 C274.75,9.407,274.562,17.639,265.551,18.368"/>
	<path fill="#E9AF21" d="M261.988,44.512h-24.312l11.496-24.945h12.358c0,0,13.674-0.476,13.03,13.686 C274.562,33.253,274.331,43.656,261.988,44.512"/>
	<path fill="#E9AF21" d="M247.117,12.717h-11.886v-0.741c-0.926,0.042-1.073-0.787-1.073-0.787 c-0.027-0.487,0.543-0.901,0.543-0.901l-0.609-1.06l1.311-2.143h2.968l0.728-1.166h3.989l0.677,1.166h2.893l1.399,2.143 l-0.492,1.113c0.618,0.193,0.43,0.849,0.43,0.849c-0.078,0.64-0.876,0.787-0.876,0.787 M235.289,10.12l0.758,1.321l1.228,0.028 c-0.084-0.392,0-0.66,0-0.66c0.058-0.147,0.328-0.496,0.328-0.496l-0.464-0.975l0.464-0.872h-1.349L235.289,10.12z M245.771,8.466 h-1.079l0.544,1.028l-0.425,0.819c0,0,0.394,0.229,0.455,0.496c0,0,0.247,0.427,0.027,0.66l0.774-0.028l0.755-1.321L245.771,8.466z M238.345,10.34c0,0,0.719,0.246,0.411,1.129h1.584c0,0-0.214-0.405,0.038-0.66c0,0,0.119-0.423,0.251-0.37l-0.566-1.059 l0.347-2.041h-0.378L238.345,10.34z M242.212,7.34h-0.357l0.243,1.999l-0.552,1.07c0.131-0.035,0.309,0.427,0.309,0.427 c0.222,0.245,0,0.633,0,0.633l1.909-0.028c-0.395-0.658,0.324-1.055,0.324-1.055L242.212,7.34z"/>
	<rect x="235.231" y="13.133" fill="#E9AF21" width="11.886" height="0.692"/>
	<path fill="#E9AF21" d="M240.335,5.557c0-0.406,0.324-0.721,0.724-0.721c0.403,0,0.739,0.315,0.739,0.721l-0.017,0.737h-1.446"/>
	<rect x="240.755" y="3.442" fill="#E9AF21" width="0.619" height="1.541"/>
	<rect x="240.34" y="3.958" fill="#E9AF21" width="1.447" height="0.542"/>
</g>
</svg>
