<?xml version="1.0" encoding="utf-8"?>
<!-- Generator: Adobe Illustrator 16.2.1, SVG Export Plug-In . SVG Version: 6.00 Build 0)  -->
<!DOCTYPE svg PUBLIC "-//W3C//DTD SVG 1.1//EN" "http://www.w3.org/Graphics/SVG/1.1/DTD/svg11.dtd">
<svg version="1.1" id="Layer_1" xmlns="http://www.w3.org/2000/svg" xmlns:xlink="http://www.w3.org/1999/xlink" x="0px" y="0px"
	 width="595.275px" height="210.821px" viewBox="0 0 595.275 210.821" enable-background="new 0 0 595.275 210.821"
	 xml:space="preserve">
<g>
	<g>
		<path fill-rule="evenodd" clip-rule="evenodd" fill="#004990" d="M504.036,41.674l-52.368,102.427h-38.83
			c16.315-31.841,31.763-62.046,48.078-93.889c1.967-2.875,0.632-1.782,4.112-5.445c2.054-2.002,6.296-2.731,8.533-3.094H504.036
			L504.036,41.674z"/>
		<path fill-rule="evenodd" clip-rule="evenodd" fill="#004990" d="M382.809,96.301c-3.651,0.065-8.166,0.825-11.862,1.789
			c-3.694,0.966-7.018,2.229-10.001,3.792c-2.533,1.362-4.633,2.955-6.374,4.819c-1.699,1.827-3.002,3.822-3.908,5.983
			c-1.086,2.593-1.103,4.686-0.021,6.315c1.077,1.63,3.604,2.199,5.965,2.199c4.589,0,9.472-2.194,13.991-6.548
			C375.132,110.265,382.809,96.301,382.809,96.301z M361.119,43.976c2.976-2.126,8.687-2.632,9.132-2.632l35.623,0.031
			c6.079,0.003,11.215,0.533,15.367,1.562c8.475,2.102,13.077,6.62,14.081,14.958c0.523,4.358-0.43,9.509-2.914,15.426
			c-0.596,1.431-1.35,3.922-2.652,6.05c-1.3,2.129-26.813,50.678-34.823,64.733h-37.081c0,0,8.499-15.645,9.055-16.582l-1.137-0.045
			c0,0-16.921,18.05-38.691,18.221c-4.553,0.036-8.197-0.667-10.966-1.998c-2.732-1.329-4.78-3.423-6.106-6.285
			c-1.271-2.591-1.808-5.682-1.651-9.305c0.145-3.592,1.079-7.48,2.821-11.635c1.602-3.824,3.722-7.45,6.32-10.873
			c2.586-3.39,5.61-6.481,9.041-9.273c3.142-2.495,6.586-4.687,10.435-6.651c3.834-1.926,8.085-3.655,12.733-5.153
			c5.331-1.695,11.685-3.125,19.102-4.319c7.414-1.199,15.265-1.995,23.545-2.395c2.643-4.234,2.998-5.013,3.003-7.871
			c0.003-2.007-2.422-4.082-5.547-4.082c-2.327,0-42.796,1.206-42.62,0.866l7.575-14.71
			C355.503,50.578,358.865,45.585,361.119,43.976L361.119,43.976z"/>
		<path fill-rule="evenodd" clip-rule="evenodd" fill="#004990" d="M430.19,6.469C431.429,2.695,428.627,0,425.663,0L208.399,0.519
			c-6.514-0.015-15.648,3.358-20.263,11.344l-55.493,102.052c-3.555,6.531-12.159,11.283-20.285,11.283l-16.876-0.019
			c-5.087,0.028-9.36-5.523-6.236-11.265L144.873,11.52c2.421-4.454-0.439-10.926-6.378-10.972c-2.547-0.02-42.859,0-48.937,0
			c-7.086,0-14.54,3.432-19.32,11.796c-3.63,6.354-68.818,117.458-68.818,117.458c-4.126,6.821,1.42,14.301,7.938,14.354
			l131.346-0.005c8.977-0.009,16.641-4.579,20.495-11.144l55.308-102.073c4.779-8.789,9.956-11.503,20.374-11.503l14.358,0.013
			c5.274,0,9.588,5.431,6.275,11.49l-53.916,99.06c-3.377,6.207,1.159,14.071,8.119,14.102l45.871-0.031
			c8.393,0.012,17.293-4.949,20.875-11.538l55.01-101.565c5.722-10.527,9.995-11.524,20.211-11.524l64.919-0.198
			c4.365,0.16,5.927-2.909,6.843-4.204L430.19,6.469z"/>
		<path fill-rule="evenodd" clip-rule="evenodd" fill="#004990" d="M481.616,3.59c0.968-1.562,3.07-3.506,6.843-3.506
			c3.774,0,24.686,0.077,27.001,0.055c2.432-0.022,6.174,2.645,4.055,7.016c-1.305,2.694-8.335,17.175-9.195,18.63
			c-0.864,1.453-2.911,3.501-5.822,3.501c-2.909,0-25.96,0.012-27.362,0.012c-4.702,0-5.977-4.632-4.863-6.856
			C474.33,18.324,481.616,3.59,481.616,3.59z"/>
		<path fill-rule="evenodd" clip-rule="evenodd" fill="#004990" d="M510.943,144.163h-39.448c0,0,41.46-84.409,46.504-94.45
			c3.793-7.547,8.458-7.993,12.82-7.993c3.643,0,24.385,0,24.385,0s-12.669,25.331-13.224,26.267l1.134,0.045
			c0,0,17.139-27.195,40.183-27.904c9.127-0.282,19.593,11.027,1.842,25.896c-12.393-2.478-36.414,2.882-48.857,25.944
			C532.716,98.579,510.943,144.163,510.943,144.163z"/>
	</g>
	<g>
		<path fill="#004990" d="M11.596,200.993l5.495-11.449l1.832,11.449H11.596z M16.14,186.304L4.48,210.469h2.748l3.346-7.01h8.666
			l1.127,7.01h3.312l-4.086-24.165H16.14z"/>
		<path fill="#004990" d="M54.89,188.91h5.354c0.388,0,2.537,0,3.699,0.986c0.634,0.529,1.092,1.305,1.092,2.467
			s-0.317,2.218-1.304,3.099c-1.409,1.198-3.206,1.269-4.685,1.269h-5.425L54.89,188.91z M52.283,186.304l-3.945,24.165h10.427
			c2.149,0,4.58-0.247,6.481-2.114c1.409-1.374,2.149-3.487,2.149-5.214c0-1.302-0.493-2.818-1.197-3.663
			c-0.563-0.669-1.48-1.304-2.572-1.585l-0.035-0.071c2.008-0.563,4.614-2.254,4.614-5.636c0-1.761-0.423-3.522-2.465-4.791
			c-1.515-0.916-3.347-1.091-4.861-1.091H52.283z M53.234,199.196h5.882c1.339,0,2.712,0.282,3.558,0.88
			c0.951,0.67,1.479,1.867,1.479,3.101c0,1.409-0.563,4.686-6.235,4.686h-6.165L53.234,199.196z"/>
		<path fill="#004990" d="M99.241,186.304l-2.643,16.097c-0.105,0.529-0.282,1.234-0.458,2.114c0.811-0.985,0.74-1.021,0.916-1.232
			l13.492-15.323l0.317-1.656h3.03l-3.981,24.165h-3.029l2.677-16.416c0.106-0.74,0.317-1.656,0.423-2.08
			c-0.634,0.705-0.634,0.705-0.986,1.128l-13.386,15.253l-0.353,2.114H92.23l3.98-24.165H99.241z"/>
		<path fill="#004990" d="M141.688,200.993l5.496-11.449l1.832,11.449H141.688z M146.232,186.304l-11.66,24.165h2.748l3.347-7.01
			h8.666l1.127,7.01h3.312l-4.087-24.165H146.232z"/>
		<path fill="#004990" d="M186.708,196.624c1.515,0,2.712-0.315,3.804-1.69c0.458-0.599,0.987-1.515,2.185-4.016l0.563-1.198
			c0.986-2.078,1.902-2.783,2.396-3.065c0.422-0.246,1.127-0.492,2.219-0.492c0.458,0,0.881,0.07,1.233,0.141l-0.387,2.395
			c-0.212-0.07-0.423-0.07-0.634-0.07c-0.634,0-1.127,0.247-1.585,0.774c-0.563,0.669-0.845,1.479-1.55,2.959l-0.599,1.267
			c-0.845,1.797-1.479,2.536-1.867,2.924c-0.563,0.528-1.163,0.846-1.832,0.952v0.105c2.783,0.599,3.311,3.276,3.628,5.319
			l0.176,1.163c0.317,2.042,0.423,2.677,0.599,3.101c0.316,0.669,0.81,0.739,1.233,0.739c0.211,0,0.422,0,0.634-0.036l-0.388,2.361
			c-0.458,0.211-1.092,0.352-1.655,0.352c-1.057,0-1.691-0.494-2.008-0.88c-0.634-0.775-0.917-2.185-1.268-4.51l-0.353-2.29
			c-0.176-1.198-0.458-2.325-1.233-3.03c-0.951-0.845-2.36-0.81-3.382-0.81h-3.312l-1.867,11.378h-3.03l3.946-24.165h3.029
			l-1.691,10.32H186.708z"/>
		<path fill="#004990" d="M232.75,188.558c2.078,0,3.452,0.599,4.58,2.289c1.127,1.656,1.374,3.523,1.374,5.391
			c0,2.923-0.951,6.693-2.466,8.947c-1.304,1.974-3.029,3.03-5.531,3.03c-1.796,0-3.17-0.528-4.333-2.29
			c-1.128-1.69-1.374-3.627-1.374-5.284c0-2.607,0.634-6.376,2.466-9.054C228.875,189.544,230.495,188.558,232.75,188.558z
			 M233.278,185.95c-3.276,0-5.953,0.881-8.208,3.77c-2.325,2.959-3.312,7.469-3.312,11.026c0,3.382,1.021,5.707,2.29,7.221
			c1.726,2.079,4.192,2.854,6.693,2.854c3.417,0,5.953-1.303,7.89-3.77c2.22-2.817,3.312-7.256,3.312-11.061
			c0-4.826-2.008-7.327-3.945-8.666C236.377,186.197,234.828,185.95,233.278,185.95z"/>
		<path fill="#004990" d="M274.035,186.304l4.086,19.338l0.071,0.071l10.356-19.409h4.58l-3.98,24.165h-3.03l3.453-21.101
			l-0.106-0.035l-11.167,21.136h-2.043l-4.474-21.065l-0.036-0.036l-3.452,21.101h-2.536l3.98-24.165H274.035z"/>
		<path fill="#004990" d="M337.337,186.304l-3.979,24.165h-3.03l3.522-21.559h-10.92l-3.522,21.559h-3.03l3.981-24.165H337.337z"/>
		<path fill="#004990" d="M365.132,200.993l5.495-11.449l1.832,11.449H365.132z M369.676,186.304l-11.66,24.165h2.747l3.348-7.01
			h8.665l1.127,7.01h3.312l-4.087-24.165H369.676z"/>
		<path fill="#004990" d="M408.883,186.304l-1.69,10.073h11.272l1.69-10.073h3.03l-3.981,24.165h-3.028l1.901-11.484h-11.272
			l-1.902,11.484h-3.029l3.981-24.165H408.883z"/>
		<path fill="#004990" d="M453.445,186.304l-2.642,16.097c-0.105,0.529-0.282,1.234-0.458,2.114
			c0.811-0.985,0.739-1.021,0.916-1.232l13.491-15.323l0.316-1.656h3.03l-3.98,24.165h-3.029l2.677-16.416
			c0.105-0.74,0.317-1.656,0.423-2.08c-0.635,0.705-0.635,0.705-0.986,1.128l-13.387,15.253l-0.353,2.114h-3.029l3.981-24.165
			H453.445z"/>
		<path fill="#004990" d="M507.482,188.91l-1.409,8.49h-4.509c-1.232,0-3.136,0-4.192-1.057c-0.809-0.81-0.916-2.044-0.916-2.606
			c0-1.797,0.6-3.03,1.867-3.911c1.34-0.916,2.678-0.916,3.876-0.916H507.482z M510.9,186.304h-9.089
			c-1.762,0-3.875,0.211-5.707,1.549c-0.881,0.634-2.889,2.466-2.889,6.095c0,1.338,0.317,3.276,2.113,4.543
			c0.705,0.493,1.585,0.812,2.29,0.951l-8.349,11.026h3.734l7.68-10.461h4.931l-1.69,10.461h3.03L510.9,186.304z"/>
	</g>
</g>
</svg>
